<svg xmlns="http://www.w3.org/2000/svg" width="1654" height="2339" viewBox="0 0 1654 2339"><rect x="0" y="0" width="1654" height="2339" fill="white" /><g transform="translate(360,440)"><line x1="0.00" y1="0.00" x2="200.00" y2="0.00" stroke="rgb(15,70,180)" stroke-width="3" fill="none" /><rect x="220.00" y="-20.00" width="120.00" height="60.00" stroke="rgb(15,70,180)" stroke-width="2" fill="none" /><circle cx="430.00" cy="10.00" r="35.00" stroke="rgb(15,70,180)" stroke-width="2" fill="none" /><ellipse cx="560.00" cy="10.00" rx="50.00" ry="25.00" stroke="rgb(15,70,180)" stroke-width="2" fill="none" /><polygon points="0.00,100.00 60.00,80.00 100.00,140.00 40.00,160.00" stroke="rgb(15,70,180)" stroke-width="2" fill="none" /><polyline points="140.00,100.00 180.00,80.00 220.00,140.00 260.00,90.00" stroke="rgb(15,70,180)" stroke-width="2" fill="none" /><text x="0.00" y="200.00" fill="rgb(15,70,180)" font-size="28" text-anchor="start">Raw primitives test</text><path d="M 300 100 Q 350 50 400 100 T 500 100" stroke="rgb(15,70,180)" stroke-width="2" fill="none" /></g><g transform="translate(120,500)"><text x="0.00" y="0.00" fill="rgb(15,70,180)" font-size="24.0" text-anchor="start">Hello from text plugin</text></g><g transform="translate(120,600)"><g><line x1="140.00" y1="50.00" x2="140.00" y2="140.00" stroke="rgb(15,70,180)" stroke-width="2.5" fill="none" /><polyline points="203.00,50.00 207.41,50.22 211.78,50.86 216.06,51.94 220.22,53.43 224.21,55.31 228.00,57.58 231.55,60.21 234.82,63.18 237.79,66.45 240.42,70.00 242.69,73.79 244.57,77.78 246.06,81.94 247.14,86.22 247.78,90.59 248.00,95.00 247.78,99.41 247.14,103.78 246.06,108.06 244.57,112.22 242.69,116.21 240.42,120.00 237.79,123.55 234.82,126.82 231.55,129.79 228.00,132.42 224.21,134.69 220.22,136.57 216.06,138.06 211.78,139.14 207.41,139.78 203.00,140.00" stroke="rgb(15,70,180)" stroke-width="2.5" fill="none" /></g><text x="210.00" y="95.00" fill="rgb(15,70,180)" font-size="20" text-anchor="start">AND</text><line x1="90.00" y1="80.00" x2="140.00" y2="80.00" stroke="rgb(15,70,180)" stroke-width="2.5" fill="none" /><text x="70.00" y="80.00" fill="rgb(15,70,180)" font-size="16" text-anchor="start">A</text><line x1="90.00" y1="110.00" x2="140.00" y2="110.00" stroke="rgb(15,70,180)" stroke-width="2.5" fill="none" /><text x="70.00" y="110.00" fill="rgb(15,70,180)" font-size="16" text-anchor="start">B</text><line x1="280.00" y1="95.00" x2="330.00" y2="95.00" stroke="rgb(15,70,180)" stroke-width="2.5" fill="none" /><text x="350.00" y="95.00" fill="rgb(15,70,180)" font-size="16" text-anchor="start">Y</text><rect x="152.00" y="172.00" width="36.00" height="24.00" stroke="rgb(15,70,180)" stroke-width="1.5" fill="none" /><text x="170.00" y="190.00" fill="rgb(15,70,180)" font-size="14" text-anchor="middle">A</text><rect x="192.00" y="172.00" width="36.00" height="24.00" stroke="rgb(15,70,180)" stroke-width="1.5" fill="none" /><text x="210.00" y="190.00" fill="rgb(15,70,180)" font-size="14" text-anchor="middle">B</text><rect x="232.00" y="172.00" width="36.00" height="24.00" stroke="rgb(15,70,180)" stroke-width="1.5" fill="none" /><text x="250.00" y="190.00" fill="rgb(15,70,180)" font-size="14" text-anchor="middle">Y</text><rect x="152.00" y="200.00" width="36.00" height="24.00" stroke="rgb(15,70,180)" stroke-width="1.5" fill="none" /><text x="170.00" y="218.00" fill="rgb(15,70,180)" font-size="14" text-anchor="middle">0</text><rect x="192.00" y="200.00" width="36.00" height="24.00" stroke="rgb(15,70,180)" stroke-width="1.5" fill="none" /><text x="210.00" y="218.00" fill="rgb(15,70,180)" font-size="14" text-anchor="middle">0</text><rect x="232.00" y="200.00" width="36.00" height="24.00" stroke="rgb(15,70,180)" stroke-width="1.5" fill="none" /><text x="250.00" y="218.00" fill="rgb(15,70,180)" font-size="14" text-anchor="middle">0</text><rect x="152.00" y="228.00" width="36.00" height="24.00" stroke="rgb(15,70,180)" stroke-width="1.5" fill="none" /><text x="170.00" y="246.00" fill="rgb(15,70,180)" font-size="14" text-anchor="middle">1</text><rect x="192.00" y="228.00" width="36.00" height="24.00" stroke="rgb(15,70,180)" stroke-width="1.5" fill="none" /><text x="210.00" y="246.00" fill="rgb(15,70,180)" font-size="14" text-anchor="middle">1</text><rect x="232.00" y="228.00" width="36.00" height="24.00" stroke="rgb(15,70,180)" stroke-width="1.5" fill="none" /><text x="250.00" y="246.00" fill="rgb(15,70,180)" font-size="14" text-anchor="middle">1</text></g></svg>